<svg xmlns="http://www.w3.org/2000/svg" width="17" height="17" viewBox="0 0 17 17">
    <path fill="#9E9E9E" fill-rule="nonzero" d="M12.465 10.963h-.787l-.28-.269a6.476 6.476 0 0 0 1.476-5.322C12.406 2.602 10.092.39 7.3.05A6.485 6.485 0 0 0 .05 7.296c.34 2.79 2.553 5.102 5.325 5.57a6.485 6.485 0 0 0 5.325-1.474l.27.279v.787l4.238 4.236a1.054 1.054 0 0 0 1.485 0 1.052 1.052 0 0 0 0-1.485l-4.228-4.246zm-5.983 0a4.48 4.48 0 0 1-4.487-4.485 4.48 4.48 0 0 1 4.487-4.484 4.48 4.48 0 0 1 4.488 4.484 4.48 4.48 0 0 1-4.488 4.485z"/>
</svg>
